<?xml version="1.0" standalone="no"?>
<!DOCTYPE svg PUBLIC "-//W3C//DTD SVG 20010904//EN"
 "http://www.w3.org/TR/2001/REC-SVG-20010904/DTD/svg10.dtd">
<svg version="1.0" xmlns="http://www.w3.org/2000/svg"
 width="720.000000pt" height="720.000000pt" viewBox="0 0 720.000000 720.000000"
 preserveAspectRatio="xMidYMid meet">
<metadata>
Created by potrace 1.11, written by Peter Selinger 2001-2013
</metadata>
<g transform="translate(0.000000,720.000000) scale(0.100000,-0.100000)"
fill="#000000" stroke="none">
<path d="M2322 7182 c-19 -2 -53 -14 -76 -27 -33 -18 -46 -21 -55 -12 -6 6
-11 8 -11 4 0 -3 -17 0 -37 7 -34 12 -101 14 -143 4 -9 -2 -34 -14 -55 -27
-30 -17 -55 -23 -100 -23 -66 0 -121 -18 -145 -47 -12 -14 -30 -18 -75 -18
-117 0 -195 -25 -248 -78 -23 -24 -37 -29 -86 -31 -132 -6 -205 -70 -203 -179
0 -27 7 -66 15 -85 14 -32 14 -37 -10 -83 -36 -68 -34 -121 6 -192 20 -36 30
-63 25 -74 -20 -47 -1 -128 45 -193 35 -50 40 -64 40 -113 0 -64 29 -125 82
-169 23 -20 32 -37 35 -67 7 -74 61 -151 148 -210 22 -15 40 -38 47 -59 26
-82 92 -145 179 -171 33 -10 46 -20 56 -45 29 -70 99 -124 184 -141 17 -3 33
-9 35 -13 3 -5 -25 -27 -62 -50 -106 -66 -181 -127 -265 -214 -43 -44 -78 -83
-78 -86 0 -4 -11 -19 -24 -34 -46 -54 -132 -247 -150 -336 -3 -14 -10 -43 -15
-65 -13 -55 -20 -112 -27 -234 -5 -78 -11 -113 -27 -140 -21 -37 -64 -81 -79
-81 -4 0 -45 -37 -91 -82 -221 -220 -346 -524 -339 -828 2 -80 8 -124 29 -215
10 -38 18 -73 19 -77 1 -5 3 -10 4 -13 1 -3 3 -8 5 -12 1 -5 8 -21 15 -38 7
-16 14 -32 15 -35 15 -52 103 -195 166 -271 22 -26 39 -53 39 -61 0 -36 53
-214 111 -375 30 -83 35 -99 45 -163 8 -47 41 -167 51 -182 4 -7 8 -20 10 -28
4 -29 94 -199 128 -245 19 -25 35 -47 35 -50 0 -5 35 -46 95 -108 50 -54 146
-135 205 -174 54 -36 180 -105 180 -98 0 9 73 -36 129 -80 66 -50 226 -155
237 -155 4 0 15 -6 23 -14 25 -22 178 -97 311 -152 36 -14 77 -38 91 -53 118
-120 315 -249 445 -291 21 -7 44 -15 49 -19 6 -3 15 -6 20 -8 6 -1 44 -9 85
-18 105 -23 141 -26 260 -26 103 1 164 5 206 15 12 2 37 7 55 10 42 7 157 46
224 76 112 50 285 171 364 253 22 23 63 47 115 68 74 30 264 123 311 152 91
57 190 122 204 132 52 43 113 85 121 85 6 0 10 4 10 8 0 5 6 9 13 9 28 0 210
101 265 147 123 104 196 180 264 276 52 73 118 193 118 214 0 8 3 16 8 18 6 3
54 137 58 163 0 6 2 13 4 18 4 11 5 18 14 69 6 38 55 191 89 278 11 28 56 195
63 232 3 20 21 54 38 75 74 86 131 185 197 338 7 18 35 109 38 128 0 4 1 8 2
10 7 21 21 171 19 217 -1 52 -9 148 -14 177 -11 55 -39 161 -48 183 -6 14 -14
34 -18 45 -63 171 -227 390 -359 480 -66 45 -91 99 -96 203 -10 215 -49 381
-125 532 -63 126 -163 247 -275 336 -50 39 -62 48 -89 72 -8 6 -17 12 -20 12
-3 0 -33 18 -66 39 l-61 39 57 17 c31 9 69 24 83 32 32 20 81 72 81 87 1 19
34 56 55 60 87 18 181 106 192 181 2 11 12 27 23 35 105 77 166 156 173 225 3
30 13 50 38 75 56 56 71 88 77 159 4 50 12 76 32 106 31 46 63 105 56 105 -3
0 -1 13 4 28 5 19 3 40 -6 60 -11 27 -10 34 6 54 28 37 52 100 52 140 -1 20
-12 59 -26 86 -24 48 -25 52 -10 87 32 76 11 174 -44 214 -45 32 -82 43 -144
43 -44 0 -61 5 -77 22 -60 64 -128 88 -256 89 -45 0 -64 5 -76 19 -27 31 -87
49 -150 47 -32 -1 -64 3 -71 9 -61 50 -174 60 -268 24 -19 -7 -31 -5 -50 8
-62 43 -129 41 -234 -5 -29 -13 -55 -22 -57 -20 -4 3 -68 16 -84 16 -35 1 -82
-13 -128 -38 -39 -21 -60 -27 -83 -23 -80 17 -144 -6 -225 -81 -51 -48 -57
-50 -102 -47 -26 2 -48 1 -50 -2 -1 -3 -21 -18 -43 -33 -93 -63 -221 -219
-277 -337 -11 -25 -25 -48 -30 -51 -5 -3 -8 -10 -7 -15 0 -5 -6 -25 -14 -44
-28 -67 -33 -83 -35 -105 -2 -25 -18 -17 -26 13 -10 41 -77 197 -87 200 -4 2
-8 10 -8 17 0 22 -101 166 -159 227 -30 32 -78 74 -108 95 -44 30 -61 36 -99
34 -37 -1 -51 3 -68 21 -44 48 -112 96 -146 104 -19 4 -59 7 -89 6 -43 -2 -68
4 -118 29 -63 31 -125 37 -179 18 -13 -4 -32 -2 -48 6 -14 8 -26 11 -26 8 0
-3 -6 -1 -12 4 -23 18 -102 38 -136 35z"/>
</g>
</svg>
